<svg width="162" height="150" viewBox="0 0 162 150" fill="none" xmlns="http://www.w3.org/2000/svg">
<g clip-path="url(#clip0_251_3)">
<path d="M67.7104 99.9831C79.4026 96.8502 89.3713 89.201 95.4236 78.7181C101.476 68.2352 103.116 55.7774 99.9831 44.0853C96.8502 32.3931 89.2009 22.4244 78.718 16.3721C68.2352 10.3198 55.7774 8.67974 44.0852 11.8126C32.3931 14.9455 22.4244 22.5948 16.3721 33.0777C10.3198 43.5606 8.67971 56.0184 11.8126 67.7105C14.9455 79.4026 22.5948 89.3713 33.0776 95.4236C43.5605 101.476 56.0183 103.116 67.7104 99.9831ZM48.1723 49.1085C49.3949 53.6713 47.9184 58.036 44.8765 58.851C41.8347 59.6661 38.3736 56.6244 37.151 52.0616C35.9284 47.4988 37.4049 43.1341 40.4468 42.3191C43.4887 41.504 46.9497 44.5457 48.1723 49.1085ZM37.7396 70.0186C38.2745 69.4836 39 69.1831 39.7565 69.1831C40.5131 69.1831 41.2386 69.4836 41.7735 70.0185C44.2526 72.4976 47.3407 74.2802 50.7273 75.1872C54.1139 76.0942 57.6796 76.0935 61.0659 75.1852C64.4526 74.2786 67.5409 72.4964 70.0203 70.0176C72.4997 67.5389 74.2828 64.451 75.1902 61.0645C75.2851 60.7005 75.4511 60.3589 75.6787 60.0593C75.9062 59.7597 76.1907 59.5081 76.5159 59.3189C76.8411 59.1298 77.2004 59.0068 77.5733 58.9571C77.9462 58.9074 78.3253 58.9319 78.6886 59.0293C79.052 59.1266 79.3925 59.2949 79.6906 59.5244C79.9887 59.7539 80.2384 60.0401 80.4254 60.3665C80.6124 60.693 80.733 61.0531 80.7803 61.4264C80.8275 61.7996 80.8004 62.1784 80.7007 62.5412C79.5341 66.8949 77.2418 70.8648 74.0543 74.0517C70.8668 77.2386 66.8964 79.5301 62.5424 80.6958C58.1889 81.8633 53.6047 81.864 49.2508 80.6978C44.8969 79.5316 40.9268 77.2397 37.7396 74.0525C37.2047 73.5176 36.9042 72.7921 36.9041 72.0356C36.9041 71.279 37.2046 70.5535 37.7396 70.0186ZM66.9192 52.9447C63.8773 53.7598 60.4162 50.7181 59.1936 46.1553C57.971 41.5925 59.4475 37.2278 62.4894 36.4128C65.5313 35.5977 68.9923 38.6393 70.2149 43.2022C71.4376 47.765 69.961 52.1297 66.9192 52.9447Z" fill="#2C5712"/>
</g>
<g clip-path="url(#clip1_251_3)">
<path d="M94.2896 138.017C105.982 141.15 118.44 139.51 128.922 133.457C139.405 127.405 147.055 117.436 150.187 105.744C153.32 94.052 151.68 81.5942 145.628 71.1113C139.576 60.6285 129.607 52.9792 117.915 49.8463C106.223 46.7134 93.7649 48.3535 83.282 54.4058C72.7991 60.4581 65.1499 70.4268 62.017 82.1189C58.8841 93.8111 60.5242 106.269 66.5765 116.752C72.6288 127.235 82.5975 134.884 94.2896 138.017ZM102.806 84.189C101.584 88.7518 98.1228 91.7935 95.0809 90.9784C92.039 90.1633 90.5625 85.7986 91.7851 81.2358C93.0077 76.673 96.4688 73.6313 99.5106 74.4464C102.553 75.2615 104.029 79.6262 102.806 84.189ZM79.0845 112.875C78.5496 112.34 78.2491 111.614 78.2491 110.858C78.2491 110.101 78.5496 109.376 79.0845 108.841C82.2717 105.654 86.2419 103.362 90.5957 102.196C94.9496 101.029 99.5338 101.03 103.887 102.198C108.241 103.363 112.212 105.655 115.399 108.842C118.587 112.029 120.879 115.998 122.046 120.352C122.236 121.081 122.13 121.856 121.751 122.507C121.372 123.158 120.751 123.633 120.024 123.828C119.296 124.022 118.521 123.922 117.867 123.547C117.214 123.173 116.735 122.555 116.535 121.829C115.628 118.442 113.845 115.354 111.365 112.876C108.886 110.397 105.798 108.615 102.411 107.708C99.0245 106.8 95.4588 106.799 92.0723 107.706C88.6857 108.613 85.5975 110.396 83.1185 112.875C82.5835 113.41 81.858 113.71 81.1015 113.71C80.345 113.71 79.6194 113.41 79.0845 112.875ZM117.124 96.8847C114.082 96.0696 112.605 91.705 113.828 87.1421C115.05 82.5793 118.511 79.5377 121.553 80.3527C124.595 81.1678 126.072 85.5325 124.849 90.0953C123.626 94.6581 120.165 97.6998 117.124 96.8847Z" fill="#5F9104"/>
</g>
<defs>
<clipPath id="clip0_251_3">
<rect width="91.2808" height="91.2808" fill="white" transform="translate(0 23.6252) rotate(-15)"/>
</clipPath>
<clipPath id="clip1_251_3">
<rect width="91.2808" height="91.2808" fill="white" transform="translate(73.8296 38.0337) rotate(15)"/>
</clipPath>
</defs>
</svg>
