<svg width="132" height="136" viewBox="0 0 132 136" fill="none" xmlns="http://www.w3.org/2000/svg">
<g clip-path="url(#clip0_251_2)">
<path d="M85.4769 95.2313C97.1644 98.7719 110 102.656 110 81C110 70.1221 106.774 59.4884 100.731 50.4437C94.6874 41.399 86.0975 34.3495 76.0476 30.1867C65.9977 26.0238 54.939 24.9346 44.2701 27.0568C33.6011 29.179 23.801 34.4173 16.1092 42.1092C8.41726 49.801 3.17902 59.6011 1.05683 70.2701C-1.06535 80.939 0.0238305 91.9977 4.18665 102.048C8.34947 112.098 15.399 120.687 24.4437 126.731C33.4884 132.774 44.1221 136 55 136C68.7225 136 67.5538 125.66 66.3369 114.825C65.4844 107.256 64.6044 99.4456 68.75 94.75C71.9469 91.1269 78.5125 93.1207 85.4769 95.2313ZM55 60.375C53.6458 60.375 52.3048 60.1083 51.0536 59.59C49.8024 59.0718 48.6656 58.3122 47.708 57.3546C46.7504 56.397 45.9908 55.2601 45.4725 54.0089C44.9543 52.7578 44.6875 51.4168 44.6875 50.0625C44.6875 48.7083 44.9543 47.3673 45.4725 46.1161C45.9908 44.8649 46.7504 43.7281 47.708 42.7705C48.6656 41.8129 49.8024 41.0533 51.0536 40.535C52.3048 40.0168 53.6458 39.75 55 39.75C57.7351 39.75 60.3581 40.8365 62.2921 42.7705C64.226 44.7045 65.3125 47.3275 65.3125 50.0625C65.3125 52.7976 64.226 55.4206 62.2921 57.3546C60.3581 59.2885 57.7351 60.375 55 60.375ZM85.9375 81C83.2025 81 80.5795 79.9135 78.6455 77.9796C76.7115 76.0456 75.625 73.4226 75.625 70.6875C75.625 67.9525 76.7115 65.3295 78.6455 63.3955C80.5795 61.4615 83.2025 60.375 85.9375 60.375C88.6726 60.375 91.2956 61.4615 93.2296 63.3955C95.1635 65.3295 96.25 67.9525 96.25 70.6875C96.25 73.4226 95.1635 76.0456 93.2296 77.9796C91.2956 79.9135 88.6726 81 85.9375 81ZM34.375 70.6875C34.375 72.0418 34.1083 73.3828 33.59 74.6339C33.0718 75.8851 32.3122 77.022 31.3546 77.9796C30.397 78.9372 29.2601 79.6968 28.0089 80.215C26.7578 80.7333 25.4168 81 24.0625 81C22.7083 81 21.3673 80.7333 20.1161 80.215C18.8649 79.6968 17.7281 78.9372 16.7705 77.9796C15.8129 77.022 15.0533 75.8851 14.535 74.6339C14.0168 73.3828 13.75 72.0418 13.75 70.6875C13.75 67.9525 14.8365 65.3295 16.7705 63.3955C18.7045 61.4615 21.3275 60.375 24.0625 60.375C26.7976 60.375 29.4206 61.4615 31.3546 63.3955C33.2885 65.3295 34.375 67.9525 34.375 70.6875ZM37.8125 115.375C35.0775 115.375 32.4545 114.289 30.5205 112.355C28.5865 110.421 27.5 107.798 27.5 105.063C27.5 102.327 28.5865 99.7045 30.5205 97.7705C32.4545 95.8365 35.0775 94.75 37.8125 94.75C40.5476 94.75 43.1706 95.8365 45.1046 97.7705C47.0385 99.7045 48.125 102.327 48.125 105.063C48.125 107.798 47.0385 110.421 45.1046 112.355C43.1706 114.289 40.5476 115.375 37.8125 115.375Z" fill="#5F9104"/>
</g>
<path d="M131.264 0.503841C131.608 0.798238 131.849 1.19632 131.948 1.63861C132.048 2.0809 132.002 2.54366 131.818 2.95777C125.398 17.3704 111.915 37.2876 102.046 47.6664C99.2759 50.5658 95.8652 52.7736 92.0879 54.1122C92.0123 55.066 91.8361 56.3728 91.4165 57.7595C90.573 60.5285 88.6176 63.9741 84.2493 65.0708C80.019 66.0815 75.6343 66.2697 71.3332 65.6255C70.5345 65.4936 69.7463 65.304 68.9749 65.0582C68.2633 64.8395 67.5997 64.4873 67.0195 64.0204C66.6356 63.6968 66.3409 63.2802 66.1634 62.8102C65.9399 62.2088 65.9459 61.546 66.1802 60.9487C66.5788 59.9193 67.5062 59.352 68.1147 59.0495C69.768 58.2217 70.7373 57.146 71.7528 55.5787C72.1515 54.9736 72.5249 54.3307 72.9571 53.5953L73.4481 52.7634C74.0817 51.6919 74.8161 50.4943 75.7393 49.2001C77.9549 46.0949 80.779 45.3133 83.0659 45.4352C83.5974 45.4688 84.0842 45.536 84.5262 45.6369C84.7864 44.9141 85.1221 44.0401 85.5249 43.0821C86.6201 40.4811 88.2861 37.1195 90.5059 34.3883C99.6369 23.1691 116.439 8.31104 128.763 0.335763C129.143 0.0905359 129.591 -0.0255636 130.041 0.00471732C130.492 0.0349983 130.921 0.210044 131.264 0.503841Z" fill="#2C5712"/>
<defs>
<clipPath id="clip0_251_2">
<rect width="110" height="110" fill="white" transform="translate(0 26)"/>
</clipPath>
</defs>
</svg>
