<svg width="138" height="138" viewBox="0 0 138 138" fill="none" xmlns="http://www.w3.org/2000/svg">
<path d="M73.3125 23.1754C78.9532 17.2328 88.6823 15.5337 100.154 16.6894C110.797 17.7589 121.742 21.2003 129.375 24.3915V109.977C121.457 106.959 111.202 104.009 101.025 102.991C91.5889 102.034 81.3769 102.655 73.3125 107.235V23.1754ZM69 15.3784C60.5044 8.07304 48.1879 6.98629 36.9754 8.10754C23.9171 9.42717 10.7381 13.9035 2.52713 17.6382C1.77372 17.9808 1.13484 18.533 0.686731 19.2289C0.238625 19.9248 0.000229179 20.7349 0 21.5625L0 116.438C0.000199772 117.159 0.181445 117.869 0.527135 118.502C0.872825 119.136 1.37191 119.672 1.97867 120.063C2.58543 120.453 3.28047 120.685 4.00013 120.738C4.71979 120.79 5.44106 120.661 6.09788 120.362C13.7051 116.912 25.9613 112.763 37.8379 111.564C49.9905 110.34 60.1766 112.315 65.6363 119.129C66.0403 119.632 66.5524 120.039 67.1346 120.318C67.7168 120.597 68.3543 120.742 69 120.742C69.6457 120.742 70.2832 120.597 70.8654 120.318C71.4476 120.039 71.9597 119.632 72.3638 119.129C77.8234 112.315 88.0095 110.34 100.154 111.564C112.039 112.763 124.304 116.912 131.902 120.362C132.559 120.661 133.28 120.79 134 120.738C134.72 120.685 135.415 120.453 136.021 120.063C136.628 119.672 137.127 119.136 137.473 118.502C137.819 117.869 138 117.159 138 116.438V21.5625C138 20.7349 137.761 19.9248 137.313 19.2289C136.865 18.533 136.226 17.9808 135.473 17.6382C127.262 13.9035 114.083 9.42717 101.025 8.10754C89.8121 6.97767 77.4956 8.07304 69 15.3784Z" fill="#5F9104"/>
</svg>
