<svg width="140" height="140" viewBox="0 0 140 140" fill="none" xmlns="http://www.w3.org/2000/svg">
<g clip-path="url(#clip0_60_4)">
<path fill-rule="evenodd" clip-rule="evenodd" d="M68.993 66.9707C69.6118 66.9707 70.2053 67.2165 70.6429 67.6541C71.0805 68.0917 71.3263 68.6852 71.3263 69.304V120.637C71.3263 121.256 71.0805 121.85 70.6429 122.287C70.2053 122.725 69.6118 122.971 68.993 122.971C68.3742 122.971 67.7807 122.725 67.3431 122.287C66.9055 121.85 66.6597 121.256 66.6597 120.637V69.304C66.6597 68.6852 66.9055 68.0917 67.3431 67.6541C67.7807 67.2165 68.3742 66.9707 68.993 66.9707ZM59.6597 76.304C60.2785 76.304 60.872 76.5499 61.3096 76.9875C61.7472 77.425 61.993 78.0185 61.993 78.6374V111.304C61.993 111.923 61.7472 112.516 61.3096 112.954C60.872 113.392 60.2785 113.637 59.6597 113.637C59.0408 113.637 58.4473 113.392 58.0098 112.954C57.5722 112.516 57.3263 111.923 57.3263 111.304V78.6374C57.3263 78.0185 57.5722 77.425 58.0098 76.9875C58.4473 76.5499 59.0408 76.304 59.6597 76.304ZM78.3263 76.304C78.9452 76.304 79.5387 76.5499 79.9763 76.9875C80.4138 77.425 80.6597 78.0185 80.6597 78.6374V111.304C80.6597 111.923 80.4138 112.516 79.9763 112.954C79.5387 113.392 78.9452 113.637 78.3263 113.637C77.7075 113.637 77.114 113.392 76.6764 112.954C76.2388 112.516 75.993 111.923 75.993 111.304V78.6374C75.993 78.0185 76.2388 77.425 76.6764 76.9875C77.114 76.5499 77.7075 76.304 78.3263 76.304ZM50.3263 83.304C50.9452 83.304 51.5387 83.5499 51.9763 83.9875C52.4138 84.425 52.6597 85.0185 52.6597 85.6374V104.304C52.6597 104.923 52.4138 105.516 51.9763 105.954C51.5387 106.392 50.9452 106.637 50.3263 106.637C49.7075 106.637 49.114 106.392 48.6764 105.954C48.2388 105.516 47.993 104.923 47.993 104.304V85.6374C47.993 85.0185 48.2388 84.425 48.6764 83.9875C49.114 83.5499 49.7075 83.304 50.3263 83.304ZM87.6597 83.304C88.2785 83.304 88.872 83.5499 89.3096 83.9875C89.7472 84.425 89.993 85.0185 89.993 85.6374V104.304C89.993 104.923 89.7472 105.516 89.3096 105.954C88.872 106.392 88.2785 106.637 87.6597 106.637C87.0408 106.637 86.4473 106.392 86.0098 105.954C85.5722 105.516 85.3263 104.923 85.3263 104.304V85.6374C85.3263 85.0185 85.5722 84.425 86.0098 83.9875C86.4473 83.5499 87.0408 83.304 87.6597 83.304ZM40.993 87.9707C41.6118 87.9707 42.2053 88.2165 42.6429 88.6541C43.0805 89.0917 43.3263 89.6852 43.3263 90.304V99.6374C43.3263 100.256 43.0805 100.85 42.6429 101.287C42.2053 101.725 41.6118 101.971 40.993 101.971C40.3742 101.971 39.7807 101.725 39.3431 101.287C38.9055 100.85 38.6597 100.256 38.6597 99.6374V90.304C38.6597 89.6852 38.9055 89.0917 39.3431 88.6541C39.7807 88.2165 40.3742 87.9707 40.993 87.9707ZM96.993 87.9707C97.6118 87.9707 98.2053 88.2165 98.6429 88.6541C99.0805 89.0917 99.3263 89.6852 99.3263 90.304V99.6374C99.3263 100.256 99.0805 100.85 98.6429 101.287C98.2053 101.725 97.6118 101.971 96.993 101.971C96.3742 101.971 95.7807 101.725 95.3431 101.287C94.9055 100.85 94.6597 100.256 94.6597 99.6374V90.304C94.6597 89.6852 94.9055 89.0917 95.3431 88.6541C95.7807 88.2165 96.3742 87.9707 96.993 87.9707Z" fill="#2C5712"/>
</g>
<path d="M70 26.25C58.3968 26.25 47.2688 30.8594 39.0641 39.0641C30.8594 47.2688 26.25 58.3968 26.25 70V78.75H35C37.3206 78.75 39.5462 79.6719 41.1872 81.3128C42.8281 82.9538 43.75 85.1794 43.75 87.5V113.75C43.75 116.071 42.8281 118.296 41.1872 119.937C39.5462 121.578 37.3206 122.5 35 122.5H26.25C23.9294 122.5 21.7038 121.578 20.0628 119.937C18.4219 118.296 17.5 116.071 17.5 113.75V70C17.5 63.1056 18.858 56.2787 21.4963 49.9091C24.1347 43.5395 28.0018 37.752 32.8769 32.8769C37.752 28.0018 43.5395 24.1347 49.9091 21.4963C56.2787 18.858 63.1056 17.5 70 17.5C76.8944 17.5 83.7213 18.858 90.0909 21.4963C96.4605 24.1347 102.248 28.0018 107.123 32.8769C111.998 37.752 115.865 43.5395 118.504 49.9091C121.142 56.2787 122.5 63.1056 122.5 70V113.75C122.5 116.071 121.578 118.296 119.937 119.937C118.296 121.578 116.071 122.5 113.75 122.5H105C102.679 122.5 100.454 121.578 98.8128 119.937C97.1719 118.296 96.25 116.071 96.25 113.75V87.5C96.25 85.1794 97.1719 82.9538 98.8128 81.3128C100.454 79.6719 102.679 78.75 105 78.75H113.75V70C113.75 58.3968 109.141 47.2688 100.936 39.0641C92.7312 30.8594 81.6032 26.25 70 26.25Z" fill="#5F9104"/>
<defs>
<clipPath id="clip0_60_4">
<rect width="74.6667" height="74.6667" fill="white" transform="translate(17.1929 48.3041)"/>
</clipPath>
</defs>
</svg>
